<mxfile host="app.diagrams.net" modified="2023-10-23T09:19:59.636Z" agent="Mozilla/5.0 (Windows NT 10.0; Win64; x64; rv:109.0) Gecko/20100101 Firefox/118.0" etag="CCqdnSfm2Bayho-xE0jV" version="22.0.6" type="github">
  <diagram id="R2lEEEUBdFMjLlhIrx00" name="Page-1">
    <mxGraphModel dx="794" dy="380" grid="1" gridSize="10" guides="1" tooltips="1" connect="1" arrows="1" fold="1" page="1" pageScale="1" pageWidth="850" pageHeight="1100" math="0" shadow="0" extFonts="Permanent Marker^https://fonts.googleapis.com/css?family=Permanent+Marker">
      <root>
        <mxCell id="0" />
        <mxCell id="1" parent="0" />
        <mxCell id="y19ZGrws3OpCnRB4xnEW-1" value="&lt;div&gt;zadatak:&lt;/div&gt;&lt;div&gt;&lt;p&gt;Na fakultetu se želi imati popis literature iz knjižnice popredmetima. Kroz popis se želi omogućiti sljedeće stvarno stanje:&lt;/p&gt;&lt;p&gt;Za predmet može, a ne mora biti knjiga uknjižnici &lt;/p&gt;&lt;p&gt;&lt;span&gt;&lt;span&gt;-&lt;/span&gt;&lt;/span&gt;Za predmet može biti I više knjiga u knjižnici &lt;/p&gt;&lt;span&gt;Knjiga iz knjižnice se može koristiti na nijednom, jednom ili na više predmeta&lt;/span&gt;&lt;/div&gt;" style="text;html=1;strokeColor=none;fillColor=none;spacing=5;spacingTop=-20;whiteSpace=wrap;overflow=hidden;rounded=0;" vertex="1" parent="1">
          <mxGeometry x="140" y="240" width="190" height="220" as="geometry" />
        </mxCell>
      </root>
    </mxGraphModel>
  </diagram>
</mxfile>
